<?xml version="1.0" encoding="UTF-8"?>
<svg id="Layer_2" data-name="Layer 2" xmlns="http://www.w3.org/2000/svg" viewBox="0 0 260.44 260.44">
  <defs>
  </defs>
  <g id="Layer_1-2" data-name="Layer 1">
    <g>
      <g>
        <path class="cls-2" d="M130.22,.12C58.37,.12,.12,58.37,.12,130.22s58.25,130.09,130.09,130.09,130.09-58.25,130.09-130.09S202.07,.12,130.22,.12Zm0,220.73c-50.05,0-90.63-40.58-90.63-90.63S80.17,39.59,130.22,39.59s90.63,40.58,90.63,90.63-40.58,90.63-90.63,90.63Z"/>
        <path class="cls-2" d="M130.21,23.68c-58.83,0-106.53,47.7-106.53,106.53s47.7,106.53,106.53,106.53,106.54-47.68,106.54-106.53S189.06,23.68,130.21,23.68Zm0,193.02c-47.76,0-86.49-38.72-86.49-86.49S82.45,43.72,130.21,43.72s86.49,38.72,86.49,86.49-38.72,86.49-86.49,86.49Z"/>
      </g>
      <g>
        <polygon class="cls-1" points="121.22 124.06 87.87 130.22 125.23 130.22 121.22 124.06"/>
        <polygon class="cls-1" points="130.22 123.05 130.22 84.86 124.79 120.44 128.55 123.33 130.22 123.05"/>
        <polygon class="cls-1" points="138.66 130.22 172.56 130.22 139.34 124.1 138.7 125.08 138.66 130.22"/>
        <polygon class="cls-1" points="133.37 122.52 135.97 120.48 130.33 84.13 130.22 84.86 130.22 123.05 133.37 122.52"/>
        <polygon class="cls-1" points="125.85 138.85 124.61 139.81 130.22 175.96 130.22 138.86 125.85 138.85"/>
        <polygon class="cls-1" points="125.23 130.22 87.87 130.22 87.84 130.23 121.31 136.18 125.24 130.23 125.23 130.22"/>
        <polygon class="cls-1" points="130.22 138.86 130.22 175.96 130.27 176.32 135.78 140.01 134.28 138.87 130.22 138.86"/>
        <polygon class="cls-1" points="138.63 135.39 139.32 136.44 172.6 130.23 172.56 130.22 138.66 130.22 138.63 135.39"/>
        <polygon class="cls-1" points="124.14 123.52 130.22 130.09 130.22 123.05 128.55 123.33 124.79 120.44 124.33 123.49 124.14 123.52"/>
        <polygon class="cls-1" points="130.22 123.05 130.22 130.09 130.27 130.16 136.44 123.48 135.97 120.48 133.37 122.52 130.22 123.05"/>
        <polygon class="cls-1" points="136.44 123.48 130.27 130.16 130.33 130.22 138.66 130.22 138.7 125.08 139.34 124.1 136.45 123.57 136.44 123.48"/>
        <polygon class="cls-1" points="138.66 130.22 130.33 130.22 136.56 136.96 139.32 136.44 138.63 135.39 138.66 130.22"/>
        <polygon class="cls-1" points="130.21 130.22 130.22 130.22 130.22 130.09 124.14 123.52 121.22 124.06 125.23 130.22 130.21 130.22"/>
        <polygon class="cls-1" points="124.14 136.8 130.21 130.22 125.23 130.22 125.24 130.23 121.31 136.18 124.12 136.68 124.14 136.8"/>
        <polygon class="cls-1" points="130.22 138.86 130.22 130.22 130.21 130.22 124.14 136.8 124.61 139.81 125.85 138.85 130.22 138.86"/>
        <polygon class="cls-1" points="136.56 136.96 130.33 130.22 130.22 130.22 130.22 138.86 134.28 138.87 135.78 140.01 136.24 137.02 136.56 136.96"/>
      </g>
    </g>
  </g>
</svg>